<?xml version="1.0" encoding="UTF-8" standalone="no"?>
<!-- Created with Inkscape (http://www.inkscape.org/) -->

<svg
   width="4.145in"
   height="4.145in"
   viewBox="0 0 105.28301 105.283"
   version="1.1"
   id="svg5"
   inkscape:version="1.1.1 (eb90963e84, 2021-10-02)"
   sodipodi:docname="logo.svg"
   xmlns:inkscape="http://www.inkscape.org/namespaces/inkscape"
   xmlns:sodipodi="http://sodipodi.sourceforge.net/DTD/sodipodi-0.dtd"
   xmlns="http://www.w3.org/2000/svg"
   xmlns:svg="http://www.w3.org/2000/svg">
  <sodipodi:namedview
     id="namedview7"
     pagecolor="#ffffff"
     bordercolor="#666666"
     borderopacity="1.0"
     inkscape:pageshadow="2"
     inkscape:pageopacity="0.0"
     inkscape:pagecheckerboard="0"
     inkscape:document-units="mm"
     showgrid="false"
     units="in"
     width="4.145in"
     scale-x="1"
     inkscape:zoom="1.2953002"
     inkscape:cx="98.432778"
     inkscape:cy="231.22053"
     inkscape:window-width="1920"
     inkscape:window-height="1034"
     inkscape:window-x="1366"
     inkscape:window-y="21"
     inkscape:window-maximized="1"
     inkscape:current-layer="layer1" />
  <defs
     id="defs2">
    <filter
       inkscape:collect="always"
       style="color-interpolation-filters:sRGB"
       id="filter4101-4"
       x="-0.084142294"
       y="-0.084536785"
       width="1.1682846"
       height="1.1690736">
      <feGaussianBlur
         inkscape:collect="always"
         stdDeviation="0.87591818"
         id="feGaussianBlur4103-7" />
    </filter>
  </defs>
  <g
     inkscape:label="Layer 1"
     inkscape:groupmode="layer"
     id="layer1">
    <path
       style="color:#000000;mix-blend-mode:normal;fill:#6400ff;fill-opacity:1;stroke-linejoin:round;stroke-dasharray:11.8964, 2.97412;-inkscape-stroke:none;filter:url(#filter4101-4)"
       d="m 157.12091,141.28946 -0.2832,0.004 c -0.0124,5.1e-4 -0.0247,10e-4 -0.0371,0.002 l -0.28321,0.01 c -0.0124,5.1e-4 -0.0247,10e-4 -0.0371,0.002 l -0.27929,0.0176 c -0.0124,0.001 -0.0247,0.003 -0.0371,0.004 l -0.2793,0.0234 c -0.0124,0.001 -0.0248,0.003 -0.0371,0.004 l -0.27539,0.0312 c -0.0124,0.002 -0.0248,0.004 -0.0371,0.006 l -0.27539,0.0371 c -0.0124,0.002 -0.0248,0.004 -0.0371,0.006 l -0.27149,0.0449 c -0.0124,0.002 -0.0248,0.004 -0.0371,0.006 l -0.26953,0.0527 c -0.0118,0.003 -0.0235,0.005 -0.0352,0.008 l -0.26758,0.0566 c -0.0124,0.003 -0.0248,0.005 -0.0371,0.008 l -0.26367,0.0645 c -0.0124,0.003 -0.0248,0.007 -0.0371,0.01 l -0.26172,0.0703 c -0.0118,0.003 -0.0235,0.007 -0.0352,0.01 l -0.25976,0.0781 c -0.0118,0.003 -0.0235,0.007 -0.0352,0.01 l -0.25782,0.084 c -0.0111,0.004 -0.0222,0.008 -0.0332,0.0117 l -0.25586,0.0879 c -0.0111,0.004 -0.0222,0.009 -0.0332,0.0137 l -0.25195,0.0937 c -0.0111,0.004 -0.0222,0.009 -0.0332,0.0137 l -0.24805,0.10156 c -0.0118,0.004 -0.0235,0.009 -0.0352,0.0137 l -0.24414,0.10742 c -0.0111,0.004 -0.0222,0.009 -0.0332,0.0137 l -0.24218,0.11328 c -0.0111,0.005 -0.0222,0.0103 -0.0332,0.0156 l -0.23829,0.11718 c -0.0105,0.006 -0.0209,0.0116 -0.0312,0.0176 l -0.23632,0.12305 c -0.0105,0.006 -0.0209,0.0116 -0.0312,0.0176 l -0.23243,0.1289 c -0.0105,0.006 -0.0209,0.0116 -0.0312,0.0176 l -0.22851,0.13477 c -0.0105,0.006 -0.0209,0.0116 -0.0312,0.0176 l -0.22461,0.14063 c -0.01,0.006 -0.0196,0.0115 -0.0293,0.0175 l -0.22266,0.14453 c -0.01,0.006 -0.0196,0.0129 -0.0293,0.0195 l -0.21679,0.15039 c -0.01,0.006 -0.0196,0.0129 -0.0293,0.0195 l -0.21485,0.15625 c -0.009,0.007 -0.0183,0.0142 -0.0273,0.0215 l -0.043,0.0332 1.80274,2.36328 0.0293,-0.0215 0.18554,-0.13477 0.1875,-0.1289 0.19141,-0.125 0.19531,-0.1211 0.19727,-0.11718 0.20117,-0.11133 0.20312,-0.10742 0.20704,-0.10157 0.20898,-0.0977 0.21289,-0.0918 0.21289,-0.0879 0.21875,-0.082 0.21875,-0.0762 0.22266,-0.0723 0.22461,-0.0664 0.22656,-0.0605 0.22852,-0.0566 0.23242,-0.0488 0.23242,-0.0449 0.23633,-0.0391 0.23633,-0.0332 0.24023,-0.0273 0.24023,-0.0215 0.24414,-0.0137 0.24415,-0.01 0.24609,-0.004 0.24609,0.004 0.2461,0.01 0.24218,0.0137 0.24219,0.0215 0.23828,0.0273 0.23828,0.0332 0.23438,0.0391 0.23437,0.0449 0.23047,0.0488 0.22852,0.0566 0.22656,0.0605 0.22461,0.0664 0.22266,0.0723 0.21875,0.0762 0.21875,0.082 0.21484,0.0879 0.21094,0.0918 0.0957,0.0449 1.2539,-2.69727 -0.11328,-0.0527 c -0.011,-0.005 -0.0221,-0.009 -0.0332,-0.0137 l -0.24414,-0.10742 c -0.011,-0.005 -0.0221,-0.009 -0.0332,-0.0137 l -0.25,-0.10156 c -0.011,-0.005 -0.0221,-0.009 -0.0332,-0.0137 l -0.25195,-0.0937 c -0.011,-0.005 -0.0221,-0.009 -0.0332,-0.0137 l -0.25391,-0.0879 c -0.0117,-0.004 -0.0234,-0.008 -0.0352,-0.0117 l -0.25781,-0.084 c -0.0117,-0.003 -0.0234,-0.007 -0.0352,-0.01 l -0.25977,-0.0781 c -0.0117,-0.003 -0.0234,-0.007 -0.0352,-0.01 l -0.26171,-0.0703 c -0.0117,-0.003 -0.0234,-0.007 -0.0352,-0.01 l -0.26563,-0.0645 c -0.0123,-0.003 -0.0247,-0.005 -0.0371,-0.008 l -0.26562,-0.0566 c -0.0123,-0.003 -0.0247,-0.005 -0.0371,-0.008 l -0.26954,-0.0527 c -0.0123,-0.002 -0.0247,-0.004 -0.0371,-0.006 l -0.27148,-0.0449 c -0.0123,-0.002 -0.0247,-0.004 -0.0371,-0.006 l -0.27344,-0.0371 c -0.0123,-0.002 -0.0247,-0.004 -0.0371,-0.006 l -0.27734,-0.0312 c -0.0124,-8.2e-4 -0.0247,-0.001 -0.0371,-0.002 l -0.27735,-0.0234 c -0.013,-0.002 -0.026,-0.003 -0.0391,-0.004 l -0.27929,-0.0176 c -0.0124,-8.2e-4 -0.0247,-0.001 -0.0371,-0.002 l -0.28321,-0.01 c -0.0124,-8.2e-4 -0.0247,-0.001 -0.0371,-0.002 l -0.2832,-0.004 c -0.013,-1.7e-4 -0.0261,-1.7e-4 -0.0391,0 z m 8.11523,2.9668 -1.91406,2.27539 0.0488,0.041 0.16992,0.15039 0.16797,0.15625 0.16211,0.15821 0.16016,0.16211 0.15625,0.16601 0.15234,0.16992 0.14649,0.17383 0.14257,0.17774 0.14063,0.17968 0.13476,0.1836 0.12891,0.1875 0.12695,0.1914 0.1211,0.19336 0.11719,0.19532 0.11132,0.19921 0.10743,0.20313 0.10351,0.20508 0.0977,0.20703 0.0918,0.21094 0.0879,0.21289 0.082,0.21679 0.0781,0.21875 0.0703,0.21875 0.0684,0.22461 0.0606,0.22461 0.0547,0.22657 0.0508,0.23046 0.0449,0.23047 0.0391,0.23438 0.0332,0.23437 0.0273,0.23828 0.0215,0.24024 0.0156,0.24023 0.008,0.24219 0.004,0.22656 v 0.0371 l -0.004,0.22656 -0.008,0.24219 -0.0156,0.24219 -0.0215,0.23828 -0.0273,0.23828 -0.0332,0.23438 -0.0391,0.23437 -0.0449,0.23242 -0.0508,0.22852 -0.0547,0.22656 -0.0606,0.22656 -0.0684,0.22266 -0.0703,0.2207 -0.0781,0.2168 -0.082,0.2168 -0.0879,0.21289 -0.0918,0.21094 -0.0977,0.20703 -0.10351,0.20508 -0.10743,0.20312 -0.11132,0.19922 -0.11719,0.19726 -0.1211,0.19336 -0.12695,0.18946 -0.12891,0.1875 -0.13476,0.18359 -0.14063,0.17969 -0.14257,0.17773 -0.14649,0.17383 -0.15234,0.16992 -0.15625,0.16602 -0.16016,0.16211 -0.16211,0.16015 -0.16797,0.1543 -0.16992,0.15039 -0.17578,0.14649 -0.17773,0.14257 -0.18164,0.13868 -0.18555,0.13476 -0.1875,0.12891 -0.19141,0.12695 -0.19531,0.12109 -0.19727,0.11524 -0.20117,0.11133 -0.0898,0.0488 1.38086,2.63281 0.10742,-0.0566 c 0.0105,-0.005 0.0209,-0.0103 0.0312,-0.0156 l 0.23243,-0.13086 c 0.0105,-0.006 0.0209,-0.0116 0.0312,-0.0176 l 0.22851,-0.13476 c 0.0105,-0.006 0.0209,-0.0116 0.0312,-0.0176 l 0.22461,-0.14062 c 0.01,-0.006 0.0196,-0.0116 0.0293,-0.0176 l 0.22266,-0.14649 c 0.01,-0.006 0.0196,-0.0129 0.0293,-0.0195 l 0.21679,-0.15039 c 0.01,-0.006 0.0196,-0.0129 0.0293,-0.0195 l 0.21485,-0.15625 c 0.009,-0.006 0.0183,-0.0129 0.0273,-0.0195 l 0.21093,-0.16016 c 0.009,-0.008 0.0183,-0.0155 0.0273,-0.0234 l 0.20508,-0.16407 c 0.01,-0.008 0.0196,-0.0155 0.0293,-0.0234 l 0.20117,-0.16797 c 0.009,-0.008 0.0183,-0.0155 0.0273,-0.0234 l 0.19727,-0.17578 c 0.009,-0.008 0.017,-0.0155 0.0254,-0.0234 l 0.19336,-0.17773 c 0.009,-0.008 0.017,-0.0168 0.0254,-0.0254 l 0.18945,-0.1836 c 0.009,-0.008 0.017,-0.0168 0.0254,-0.0254 l 0.1836,-0.1875 c 0.009,-0.008 0.017,-0.0168 0.0254,-0.0254 l 0.17968,-0.19141 c 0.008,-0.009 0.0157,-0.0181 0.0234,-0.0273 l 0.17578,-0.19531 c 0.008,-0.009 0.0157,-0.0182 0.0234,-0.0274 l 0.16993,-0.20117 c 0.008,-0.009 0.0157,-0.0181 0.0234,-0.0273 l 0.16601,-0.20508 c 0.007,-0.009 0.0144,-0.0181 0.0215,-0.0273 l 0.16016,-0.20899 c 0.007,-0.009 0.0144,-0.0181 0.0215,-0.0273 l 0.15625,-0.21289 c 0.007,-0.01 0.0145,-0.0195 0.0215,-0.0293 l 0.15039,-0.2168 c 0.007,-0.01 0.0131,-0.0195 0.0195,-0.0293 l 0.14648,-0.22071 c 0.007,-0.01 0.0131,-0.0195 0.0195,-0.0293 l 0.14063,-0.22461 c 0.006,-0.0103 0.0119,-0.0207 0.0176,-0.0312 l 0.13671,-0.22656 c 0.006,-0.0103 0.0119,-0.0207 0.0176,-0.0312 l 0.12891,-0.23047 c 0.006,-0.011 0.0119,-0.0221 0.0176,-0.0332 l 0.125,-0.23242 c 0.005,-0.011 0.0105,-0.0221 0.0156,-0.0332 l 0.11914,-0.23828 c 0.005,-0.0103 0.0105,-0.0207 0.0156,-0.0312 l 0.11328,-0.24219 c 0.005,-0.011 0.0105,-0.0221 0.0156,-0.0332 l 0.10742,-0.24414 c 0.005,-0.011 0.009,-0.0221 0.0137,-0.0332 l 0.10157,-0.24609 c 0.005,-0.0117 0.009,-0.0234 0.0137,-0.0352 l 0.0957,-0.25 c 0.004,-0.011 0.008,-0.0221 0.0117,-0.0332 l 0.0898,-0.25391 c 0.004,-0.0117 0.008,-0.0234 0.0117,-0.0352 l 0.084,-0.25586 c 0.004,-0.0117 0.008,-0.0234 0.0117,-0.0352 l 0.0762,-0.25781 c 0.003,-0.0117 0.007,-0.0234 0.01,-0.0352 l 0.0723,-0.26172 c 0.003,-0.0123 0.007,-0.0247 0.01,-0.0371 l 0.0645,-0.26171 c 0.003,-0.0123 0.005,-0.0247 0.008,-0.0371 l 0.0586,-0.26563 c 0.003,-0.0123 0.005,-0.0247 0.008,-0.0371 l 0.0508,-0.26758 c 0.003,-0.0123 0.005,-0.0247 0.008,-0.0371 l 0.0449,-0.27148 c 0.002,-0.0123 0.004,-0.0247 0.006,-0.0371 l 0.0371,-0.27344 c 0.002,-0.0123 0.004,-0.0247 0.006,-0.0371 l 0.0312,-0.27539 c 0.001,-0.0123 0.003,-0.0247 0.004,-0.0371 l 0.0234,-0.27734 c 0.001,-0.0123 0.003,-0.0247 0.004,-0.0371 l 0.0176,-0.2793 c 8.2e-4,-0.0124 0.001,-0.0247 0.002,-0.0371 l 0.01,-0.28125 c 8.2e-4,-0.0124 0.001,-0.0247 0.002,-0.0371 l 0.004,-0.28321 -1.48828,-0.0195 1.48828,0.0195 -0.004,-0.3203 c -5.1e-4,-0.0124 -0.001,-0.0247 -0.002,-0.0371 l -0.01,-0.28125 c -5.1e-4,-0.0124 -0.001,-0.0247 -0.002,-0.0371 l -0.0176,-0.2793 c -0.001,-0.0124 -0.003,-0.0248 -0.004,-0.0371 l -0.0234,-0.27734 c -0.001,-0.0124 -0.003,-0.0248 -0.004,-0.0371 l -0.0312,-0.27539 c -0.002,-0.0124 -0.004,-0.0248 -0.006,-0.0371 l -0.0371,-0.27344 c -0.002,-0.0124 -0.004,-0.0248 -0.006,-0.0371 l -0.0449,-0.26953 c -0.003,-0.0124 -0.005,-0.0248 -0.008,-0.0371 l -0.0508,-0.26953 c -0.003,-0.0124 -0.005,-0.0248 -0.008,-0.0371 l -0.0586,-0.26562 c -0.003,-0.0118 -0.005,-0.0235 -0.008,-0.0352 l -0.0645,-0.26367 c -0.003,-0.0124 -0.007,-0.0248 -0.01,-0.0371 l -0.0723,-0.25976 c -0.003,-0.0124 -0.007,-0.0248 -0.01,-0.0371 l -0.0762,-0.25782 c -0.004,-0.0118 -0.008,-0.0235 -0.0117,-0.0352 l -0.084,-0.25586 c -0.004,-0.0118 -0.008,-0.0235 -0.0117,-0.0352 l -0.0898,-0.25195 c -0.004,-0.0118 -0.008,-0.0235 -0.0117,-0.0352 l -0.0957,-0.25 c -0.004,-0.0111 -0.009,-0.0222 -0.0137,-0.0332 l -0.10157,-0.24805 c -0.004,-0.0111 -0.009,-0.0222 -0.0137,-0.0332 l -0.10742,-0.24414 c -0.005,-0.0111 -0.0103,-0.0222 -0.0156,-0.0332 l -0.11328,-0.24024 c -0.005,-0.0111 -0.0103,-0.0222 -0.0156,-0.0332 l -0.11914,-0.23828 c -0.005,-0.0105 -0.0103,-0.0209 -0.0156,-0.0312 l -0.125,-0.23438 c -0.006,-0.0111 -0.0116,-0.0222 -0.0176,-0.0332 l -0.1289,-0.2308 c -0.006,-0.0105 -0.0116,-0.0209 -0.0176,-0.0312 l -0.13672,-0.22656 c -0.006,-0.0105 -0.0116,-0.0209 -0.0176,-0.0312 l -0.14063,-0.22266 c -0.006,-0.0105 -0.0129,-0.0209 -0.0195,-0.0312 l -0.14648,-0.2207 c -0.006,-0.01 -0.0129,-0.0196 -0.0195,-0.0293 l -0.15039,-0.2168 c -0.007,-0.01 -0.0142,-0.0196 -0.0215,-0.0293 l -0.15625,-0.21108 c -0.007,-0.01 -0.0142,-0.0196 -0.0215,-0.0293 l -0.16016,-0.20898 c -0.007,-0.009 -0.0142,-0.0183 -0.0215,-0.0273 l -0.16602,-0.20507 c -0.008,-0.009 -0.0155,-0.0184 -0.0234,-0.0274 l -0.16992,-0.20117 c -0.008,-0.009 -0.0155,-0.017 -0.0234,-0.0254 l -0.17578,-0.19727 c -0.008,-0.009 -0.0155,-0.0183 -0.0234,-0.0273 l -0.17968,-0.19141 c -0.008,-0.009 -0.0168,-0.017 -0.0254,-0.0254 l -0.1836,-0.1875 c -0.008,-0.009 -0.0168,-0.017 -0.0254,-0.0254 l -0.18945,-0.18359 c -0.008,-0.008 -0.0168,-0.0157 -0.0254,-0.0234 l -0.19336,-0.17969 c -0.008,-0.008 -0.0168,-0.0157 -0.0254,-0.0234 l -0.19727,-0.17578 c -0.009,-0.007 -0.0181,-0.0144 -0.0273,-0.0215 z m -18.00976,1.90429 -0.0801,0.10547 c -0.007,0.01 -0.0144,0.0195 -0.0215,0.0293 l -0.15625,0.21094 c -0.007,0.01 -0.0144,0.0195 -0.0215,0.0293 l -0.15039,0.2168 c -0.007,0.01 -0.0131,0.0195 -0.0195,0.0293 l -0.14649,0.2207 c -0.007,0.0103 -0.0131,0.0207 -0.0195,0.0312 l -0.14062,0.22266 c -0.006,0.0103 -0.0119,0.0207 -0.0176,0.0312 l -0.13477,0.22656 c -0.007,0.0103 -0.0131,0.0207 -0.0195,0.0312 l -0.1289,0.23047 c -0.006,0.011 -0.0119,0.0221 -0.0176,0.0332 l -0.125,0.23438 c -0.005,0.0103 -0.0105,0.0207 -0.0156,0.0312 l -0.11914,0.23828 c -0.005,0.011 -0.0105,0.0221 -0.0156,0.0332 l -0.11329,0.24024 c -0.005,0.011 -0.0105,0.0221 -0.0156,0.0332 l -0.10742,0.24414 c -0.005,0.011 -0.009,0.0221 -0.0137,0.0332 l -0.10156,0.24805 c -0.005,0.011 -0.009,0.0221 -0.0137,0.0332 l -0.0957,0.25 c -0.004,0.0117 -0.008,0.0234 -0.0117,0.0352 l -0.0898,0.25195 c -0.004,0.0117 -0.008,0.0234 -0.0117,0.0352 l -0.084,0.25586 c -0.004,0.0117 -0.008,0.0234 -0.0117,0.0352 l -0.0762,0.25782 c -0.003,0.0123 -0.007,0.0247 -0.01,0.0371 l -0.0723,0.25976 c -0.003,0.0123 -0.005,0.0247 -0.008,0.0371 l -0.0664,0.26367 c -0.003,0.0117 -0.005,0.0234 -0.008,0.0352 l -0.0586,0.26562 c -0.003,0.0123 -0.005,0.0247 -0.008,0.0371 l -0.0508,0.26953 c -0.002,0.0123 -0.004,0.0247 -0.006,0.0371 l -0.0449,0.26953 c -0.002,0.0123 -0.004,0.0247 -0.006,0.0371 l -0.0391,0.27344 c -10e-4,0.0123 -0.003,0.0247 -0.004,0.0371 l -0.0332,0.27539 c -0.001,0.0123 -0.003,0.0247 -0.004,0.0371 l -0.0234,0.27734 c -0.001,0.0124 -0.003,0.0247 -0.004,0.0371 l -0.0176,0.2793 c -8.2e-4,0.0124 -0.001,0.0247 -0.002,0.0371 l -0.01,0.28125 c -8.2e-4,0.0124 -0.001,0.0247 -0.002,0.0371 l -0.004,0.2832 c -1.5e-4,0.0124 -1.5e-4,0.0247 0,0.0371 l 0.004,0.28321 c 5.1e-4,0.0124 0.001,0.0247 0.002,0.0371 l 0.01,0.28125 c 5.1e-4,0.0124 0.001,0.0247 0.002,0.0371 l 0.0176,0.2793 c 10e-4,0.0124 0.003,0.0248 0.004,0.0371 l 0.0234,0.27734 c 10e-4,0.0124 0.003,0.0247 0.004,0.0371 l 0.0332,0.27539 c 0.001,0.0124 0.003,0.0247 0.004,0.0371 l 0.0391,0.27344 c 0.002,0.0124 0.004,0.0248 0.006,0.0371 l 0.0449,0.27148 c 0.002,0.0124 0.004,0.0248 0.006,0.0371 l 0.0508,0.26758 c 0.003,0.0124 0.005,0.0248 0.008,0.0371 l 0.0586,0.26563 c 0.003,0.0124 0.005,0.0248 0.008,0.0371 l 0.0664,0.26171 c 0.003,0.0124 0.005,0.0248 0.008,0.0371 l 0.0723,0.26172 c 0.003,0.0118 0.007,0.0235 0.01,0.0352 l 0.0762,0.25781 c 0.004,0.0118 0.008,0.0235 0.0117,0.0352 l 0.084,0.25586 c 0.004,0.0118 0.008,0.0235 0.0117,0.0352 l 0.0898,0.25391 c 0.004,0.0111 0.008,0.0222 0.0117,0.0332 l 0.0957,0.25 c 0.004,0.0118 0.009,0.0235 0.0137,0.0352 l 0.10156,0.24609 c 0.004,0.0111 0.009,0.0222 0.0137,0.0332 l 0.10742,0.24414 c 0.005,0.0111 0.0103,0.0222 0.0156,0.0332 l 0.041,0.0859 2.69141,-1.26367 -0.0312,-0.0684 -0.0937,-0.21094 -0.0879,-0.21289 -0.082,-0.2168 -0.0762,-0.2168 -0.0723,-0.2207 -0.0664,-0.22266 -0.0625,-0.22656 -0.0547,-0.22656 -0.0508,-0.22852 -0.0449,-0.23242 -0.0391,-0.23437 -0.0332,-0.23438 -0.0273,-0.23828 -0.0215,-0.23828 -0.0156,-0.24219 -0.008,-0.24219 -0.004,-0.24414 0.004,-0.24609 0.008,-0.24219 0.0156,-0.24023 0.0215,-0.24024 0.0273,-0.23828 0.0332,-0.23437 0.0391,-0.23438 0.0449,-0.23047 0.0508,-0.23046 0.0547,-0.22657 0.0625,-0.22461 0.0664,-0.22461 0.0723,-0.21875 0.0762,-0.21875 0.082,-0.21679 0.0879,-0.21289 0.0937,-0.21094 0.0957,-0.20703 0.10352,-0.20508 0.10742,-0.20313 0.11133,-0.19921 0.11718,-0.19532 0.1211,-0.19336 0.12695,-0.1914 0.12891,-0.1875 0.13476,-0.1836 0.0703,-0.0898 z m 2.66015,13.6836 -2.26562,1.92578 0.0664,0.0781 c 0.008,0.009 0.0155,0.0184 0.0234,0.0274 l 0.17578,0.19531 c 0.008,0.009 0.0155,0.0183 0.0234,0.0273 l 0.17969,0.19141 c 0.008,0.009 0.0168,0.017 0.0254,0.0254 l 0.18359,0.1875 c 0.008,0.009 0.0168,0.017 0.0254,0.0254 l 0.18945,0.1836 c 0.008,0.009 0.0168,0.017 0.0254,0.0254 l 0.19336,0.17773 c 0.008,0.008 0.0168,0.0157 0.0254,0.0234 l 0.19922,0.17578 c 0.008,0.008 0.0168,0.0157 0.0254,0.0234 l 0.20313,0.16797 c 0.009,0.008 0.0181,0.0157 0.0273,0.0234 l 0.20508,0.16407 c 0.009,0.008 0.0181,0.0157 0.0273,0.0234 l 0.21093,0.16016 c 0.009,0.007 0.0181,0.0131 0.0273,0.0195 l 0.21485,0.15625 c 0.01,0.007 0.0195,0.0131 0.0293,0.0195 l 0.21679,0.15039 c 0.01,0.007 0.0195,0.0131 0.0293,0.0195 l 0.22266,0.1467 c 0.01,0.006 0.0195,0.0118 0.0293,0.0176 l 0.22461,0.14062 c 0.0103,0.006 0.0207,0.0119 0.0312,0.0176 l 0.22852,0.13476 c 0.0103,0.006 0.0207,0.0119 0.0312,0.0176 l 0.23242,0.13086 c 0.0103,0.005 0.0207,0.0105 0.0312,0.0156 l 0.23633,0.125 c 0.0103,0.005 0.0207,0.0105 0.0312,0.0156 l 0.23828,0.11719 c 0.011,0.005 0.0221,0.0105 0.0332,0.0156 l 0.24218,0.11329 c 0.011,0.005 0.0221,0.0105 0.0332,0.0156 l 0.24414,0.10547 c 0.0117,0.005 0.0234,0.009 0.0352,0.0137 l 0.24805,0.10156 c 0.011,0.005 0.0221,0.009 0.0332,0.0137 l 0.25195,0.0957 c 0.011,0.004 0.0221,0.008 0.0332,0.0117 l 0.25586,0.0898 c 0.011,0.004 0.0221,0.008 0.0332,0.0117 l 0.25782,0.082 c 0.0117,0.004 0.0234,0.008 0.0352,0.0117 l 0.25976,0.0762 c 0.0117,0.003 0.0234,0.007 0.0352,0.01 l 0.26172,0.0703 c 0.0123,0.003 0.0247,0.007 0.0371,0.01 l 0.26367,0.0645 c 0.0123,0.003 0.0247,0.005 0.0371,0.008 l 0.26758,0.0586 c 0.0117,0.003 0.0234,0.005 0.0352,0.008 l 0.26953,0.0508 c 0.0123,0.002 0.0247,0.004 0.0371,0.006 l 0.27149,0.0449 c 0.0123,0.002 0.0247,0.004 0.0371,0.006 l 0.27539,0.0391 c 0.0123,0.001 0.0247,0.003 0.0371,0.004 l 0.27539,0.0312 c 0.0123,0.001 0.0247,0.003 0.0371,0.004 l 0.2793,0.0254 c 0.0124,8.2e-4 0.0247,0.001 0.0371,0.002 l 0.27929,0.0176 c 0.0124,8.2e-4 0.0247,0.001 0.0371,0.002 l 0.28321,0.01 c 0.0124,8.2e-4 0.0247,0.001 0.0371,0.002 l 0.2832,0.004 c 0.013,1.7e-4 0.0261,1.7e-4 0.0391,0 l 0.2832,-0.004 c 0.0124,-5.1e-4 0.0247,-10e-4 0.0371,-0.002 l 0.28321,-0.01 c 0.0124,-5.1e-4 0.0247,-10e-4 0.0371,-0.002 l 0.27929,-0.0176 c 0.013,-5e-4 0.0261,-10e-4 0.0391,-0.002 l 0.27734,-0.0267 c 0.0124,-0.001 0.0247,-0.003 0.0371,-0.004 l 0.27734,-0.0312 c 0.0124,-0.001 0.0248,-0.003 0.0371,-0.004 l 0.27344,-0.0391 c 0.0124,-0.002 0.0248,-0.004 0.0371,-0.006 l 0.27149,-0.0449 c 0.0124,-0.002 0.0248,-0.004 0.0371,-0.006 l 0.26953,-0.0508 c 0.0124,-0.003 0.0248,-0.005 0.0371,-0.008 l 0.13281,-0.0293 -0.62891,-2.90625 -0.11523,0.0234 -0.23437,0.0449 -0.23438,0.0391 -0.23828,0.0332 -0.23828,0.0273 -0.24219,0.0215 -0.24219,0.0156 -0.24609,0.008 -0.24609,0.004 -0.2461,-0.004 -0.24414,-0.008 -0.24414,-0.0156 -0.24023,-0.0215 -0.24024,-0.0273 -0.23633,-0.0332 -0.23632,-0.0391 -0.23243,-0.0449 -0.23242,-0.0488 -0.22851,-0.0566 -0.22657,-0.0606 -0.22461,-0.0664 -0.22265,-0.0723 -0.21875,-0.0762 -0.21875,-0.082 -0.21289,-0.0879 -0.21289,-0.0918 -0.20899,-0.0977 -0.20703,-0.10156 -0.20312,-0.10742 -0.20118,-0.11133 -0.19726,-0.11524 -0.19531,-0.12109 -0.19141,-0.12695 -0.1875,-0.12891 -0.18555,-0.13476 -0.18164,-0.13868 -0.17773,-0.14257 -0.17578,-0.14649 -0.16993,-0.15039 -0.16796,-0.1543 -0.16211,-0.16015 -0.16016,-0.16211 -0.15625,-0.16602 -0.15039,-0.16992 z"
       id="path3466-5-8"
       inkscape:export-filename="/home/vinicius/Desktop/path3466-5-8.png"
       inkscape:export-xdpi="241.64"
       inkscape:export-ydpi="241.64"
       sodipodi:nodetypes="cccccccccccccccccccccccccccccccccccccccccccccccccccccccccccccccccccccccccccccccccccccccccccccccccccccccccccccsccccccccccccccccccccccccccccccccccccccccccccccccccccccccccccccccccccccccccccccccccccccccccccccccccccccccccccccccccccccccccccccccccccccccccccccccccccccccccccccccccccccccccccccccccccccccccccccccccccccccccccccccccccccccccccccccccccccccccccccccccccccccccccccccccccccccccccccccccccccccccccccccccccccccccccccccccccccccccccccccsccccccccccccccccsccccccccccccccccccccccccccccccccccccccccccccccccccccccccccccccccccccccccccccccccccccccccccccccccccccccccccccccccccccccccccccccccccccccccccccccccccccccccccccccccccccccccccccccccccccccccccccccccccccccccccccccccccc"
       transform="matrix(2.8427028,0,0,2.8427028,-394.06166,-384.34706)" />
    <path
       style="color:#000000;fill:#6400ff;fill-opacity:1;stroke-width:2.8427;stroke-linejoin:round;stroke-miterlimit:4;stroke-dasharray:33.8179, 8.45454;stroke-dashoffset:0;paint-order:stroke fill markers"
       d="m 52.589541,17.296984 -0.80508,0.0114 c -0.0369,0.001 -0.0742,0.003 -0.11115,0.006 l -0.79951,0.0284 c -0.0353,10e-4 -0.0702,0.003 -0.10546,0.006 l -0.79951,0.05 c -0.0352,0.001 -0.0702,0.003 -0.10547,0.006 l -0.78839,0.0722 c -0.0352,0.003 -0.0702,0.009 -0.10547,0.0114 l -0.78839,0.0887 c -0.0353,0.003 -0.0705,0.009 -0.10547,0.0114 l -0.77731,0.11115 c -0.0352,0.006 -0.0705,0.0114 -0.10546,0.0171 l -0.77176,0.12764 c -0.0352,0.006 -0.0705,0.0114 -0.10547,0.0171 l -0.76619,0.14441 c -0.0352,0.009 -0.0705,0.0142 -0.10547,0.0227 l -0.76065,0.16658 c -0.0335,0.009 -0.0668,0.0142 -0.10006,0.0227 l -0.75508,0.18307 c -0.0335,0.009 -0.0668,0.0199 -0.10006,0.0284 l -0.74954,0.19984 c -0.0335,0.009 -0.0668,0.0199 -0.10006,0.0284 l -0.73845,0.21661 c -0.0335,0.0114 -0.0668,0.0227 -0.10006,0.0333 l -0.72734,0.2331 c -0.0335,0.0114 -0.0668,0.0227 -0.10006,0.0333 l -0.72176,0.25528 c -0.0335,0.0114 -0.0668,0.0227 -0.10007,0.0333 l -0.71067,0.27204 c -0.0335,0.0114 -0.0668,0.0256 -0.10006,0.0389 l -0.70514,0.28873 c -0.0316,0.0114 -0.0631,0.0256 -0.0944,0.0389 l -0.69959,0.29982 c -0.0316,0.0142 -0.0631,0.0293 -0.0944,0.0443 l -0.6829,0.32202 c -0.0316,0.0142 -0.0631,0.0293 -0.0944,0.0444 l -0.67736,0.33314 c -0.0315,0.0142 -0.0631,0.0293 -0.0944,0.0443 l -0.66627,0.35534 c -0.0316,0.0142 -0.0631,0.0293 -0.0944,0.0444 l -0.6607,0.37196 c -0.0284,0.0171 -0.0557,0.033 -0.0833,0.05 l -0.65516,0.38311 c -0.0284,0.017 -0.0557,0.033 -0.0833,0.05 l -0.6385,0.39974 c -0.0299,0.0171 -0.0594,0.033 -0.0887,0.05 l -0.62739,0.4164 c -0.0284,0.0171 -0.0557,0.0367 -0.0833,0.0554 l -0.62184,0.42752 c -0.0284,0.0171 -0.0557,0.0367 -0.0833,0.0554 l -0.60518,0.44417 c -0.0284,0.0171 -0.0557,0.0367 -0.0833,0.0554 l -0.12224,0.0944 5.1302,6.72368 0.0776,-0.0611 0.52744,-0.38308 0.53858,-0.36646 0.54409,-0.36088 0.54966,-0.34425 0.56633,-0.32756 0.56632,-0.31648 0.58298,-0.30536 0.58298,-0.28871 0.59962,-0.27773 0.59964,-0.26096 0.61072,-0.24988 0.6163,-0.2331 0.62738,-0.21661 0.62742,-0.20553 0.6385,-0.18875 0.64404,-0.17227 0.65516,-0.1609 0.65515,-0.13872 0.66625,-0.12764 0.66627,-0.11115 0.67736,-0.0944 0.67736,-0.0776 0.68847,-0.0611 0.68845,-0.0443 0.69405,-0.0227 0.7051,-0.0114 0.69959,0.0114 0.69402,0.0227 0.69401,0.0443 0.68291,0.0611 0.68293,0.0776 0.67178,0.0944 0.67182,0.11115 0.6607,0.12764 0.65516,0.13872 0.65516,0.1609 0.64404,0.17227 0.6385,0.18875 0.62741,0.20553 0.62739,0.21661 0.61629,0.2331 0.61073,0.24988 0.60518,0.26096 0.27205,0.12764 3.55892,-7.66751 -0.31645,-0.14981 c -0.0313,-0.0142 -0.0628,-0.0299 -0.0944,-0.0444 l -0.69958,-0.29982 c -0.0313,-0.0142 -0.0628,-0.0256 -0.0944,-0.0389 l -0.70511,-0.28874 c -0.0313,-0.0142 -0.0628,-0.0256 -0.0944,-0.0389 l -0.71625,-0.27205 c -0.0333,-0.0114 -0.0665,-0.0227 -0.10006,-0.0333 l -0.72177,-0.25527 c -0.0333,-0.0114 -0.0665,-0.0228 -0.10006,-0.0333 l -0.72733,-0.23311 c -0.0333,-0.0114 -0.0665,-0.0227 -0.10007,-0.0332 l -0.73845,-0.21662 c -0.0333,-0.009 -0.0665,-0.0199 -0.10006,-0.0284 l -0.74953,-0.19984 c -0.0333,-0.009 -0.0665,-0.0199 -0.10007,-0.0284 l -0.7551,-0.18307 c -0.0333,-0.009 -0.0665,-0.0142 -0.10007,-0.0228 l -0.76065,-0.16658 c -0.035,-0.009 -0.0702,-0.0142 -0.10546,-0.0227 l -0.7662,-0.14441 c -0.0333,-0.006 -0.0665,-0.0114 -0.10006,-0.0171 l -0.77728,-0.12763 c -0.035,-0.006 -0.0702,-0.0114 -0.10546,-0.0171 l -0.77731,-0.11115 c -0.035,-0.003 -0.0702,-0.009 -0.10547,-0.0114 l -0.78285,-0.0887 c -0.035,-0.003 -0.0702,-0.009 -0.10546,-0.0114 l -0.79397,-0.0722 c -0.0352,-0.002 -0.0702,-0.003 -0.10546,-0.006 l -0.79951,-0.05 c -0.0353,-0.002 -0.0702,-0.003 -0.10547,-0.006 l -0.79951,-0.0284 c -0.0353,-0.002 -0.0702,-0.003 -0.10546,-0.006 l -0.81063,-0.0114 c -0.0352,-4.3e-4 -0.0702,-4.3e-4 -0.10546,0 z m 23.06365,8.43373 -5.44111,6.46826 0.13873,0.11655 0.48857,0.42752 0.47195,0.4386 0.46637,0.45528 0.45529,0.46083 0.4386,0.47192 0.43308,0.48306 0.42195,0.49412 0.40531,0.50526 0.3942,0.51081 0.38311,0.52189 0.37199,0.53301 0.35534,0.53855 0.3498,0.54966 0.32756,0.56078 0.32202,0.56632 0.30537,0.57741 0.28873,0.58299 0.27773,0.58852 0.26636,0.59964 0.24419,0.60518 0.23879,0.6163 0.21661,0.61627 0.20553,0.62741 0.18875,0.63293 0.17227,0.64407 0.1609,0.64405 0.14441,0.64958 0.12764,0.66073 0.10546,0.66625 0.0944,0.66627 0.0776,0.67736 0.0611,0.67736 0.0443,0.68847 0.0284,0.68845 0.0114,0.64407 v 0.10546 l -0.0114,0.64407 -0.0284,0.68845 -0.0443,0.68293 -0.0611,0.6829 -0.0776,0.67736 -0.0944,0.66627 -0.10546,0.66625 -0.12764,0.65516 -0.14441,0.65515 -0.1609,0.64405 -0.17227,0.6385 -0.18875,0.6385 -0.20553,0.62184 -0.21661,0.62184 -0.23879,0.6163 -0.24419,0.60518 -0.26636,0.59964 -0.27773,0.58852 -0.28873,0.58298 -0.30537,0.57741 -0.32202,0.56633 -0.32756,0.55521 -0.3498,0.54966 -0.35534,0.54412 -0.37199,0.53301 -0.38311,0.52189 -0.3942,0.51081 -0.40531,0.50526 -0.42195,0.49412 -0.43308,0.48306 -0.4386,0.47191 -0.45529,0.46084 -0.46637,0.44971 -0.47195,0.44417 -0.48857,0.42752 -0.49415,0.41642 -0.50526,0.40532 -0.51635,0.39419 -0.52744,0.38309 -0.533,0.36645 -0.54967,0.35534 -0.54966,0.34422 -0.56078,0.33314 -0.57187,0.31648 -0.26096,0.13332 3.93092,7.48987 0.30536,-0.1609 c 0.0298,-0.0171 0.0594,-0.033 0.0887,-0.05 l 0.66073,-0.36643 c 0.0299,-0.0171 0.0594,-0.033 0.0887,-0.05 l 0.64958,-0.38311 c 0.0284,-0.0171 0.0557,-0.033 0.0833,-0.05 l 0.64405,-0.39974 c 0.0284,-0.0171 0.0557,-0.0367 0.0833,-0.0554 l 0.62741,-0.41086 c 0.0284,-0.0171 0.0557,-0.0367 0.0833,-0.0554 l 0.62184,-0.42752 c 0.0284,-0.017 0.0557,-0.0367 0.0833,-0.0554 l 0.60519,-0.44417 c 0.0284,-0.0199 0.0557,-0.0404 0.0833,-0.0611 l 0.59407,-0.45529 c 0.0284,-0.0199 0.0557,-0.0404 0.0833,-0.0611 l 0.58298,-0.46637 c 0.0256,-0.0227 0.052,-0.0441 0.0776,-0.0665 l 0.57187,-0.48303 c 0.0256,-0.0199 0.052,-0.0404 0.0776,-0.0611 l 0.56078,-0.49969 c 0.0256,-0.0227 0.052,-0.0441 0.0776,-0.0665 l 0.54967,-0.51078 c 0.0256,-0.0227 0.0483,-0.0441 0.0722,-0.0665 l 0.53301,-0.52192 c 0.0256,-0.0228 0.0483,-0.0478 0.0722,-0.0722 l 0.52744,-0.53301 c 0.0227,-0.0227 0.0446,-0.0478 0.0665,-0.0722 l 0.5108,-0.54409 c 0.0256,-0.0256 0.0483,-0.0517 0.0722,-0.0779 l 0.49414,-0.56076 c 0.0228,-0.0227 0.0446,-0.0478 0.0665,-0.0722 l 0.48858,-0.5719 c 0.0199,-0.0256 0.0409,-0.0514 0.0611,-0.0776 l 0.47194,-0.58298 c 0.0199,-0.0256 0.0409,-0.0515 0.0611,-0.0776 l 0.46083,-0.59409 c 0.0199,-0.0284 0.0412,-0.0554 0.0611,-0.0833 l 0.44417,-0.59964 c 0.0199,-0.0284 0.0372,-0.0554 0.0554,-0.0836 l 0.43306,-0.61627 c 0.0199,-0.0284 0.0372,-0.0554 0.0554,-0.0833 l 0.41086,-0.62739 c 0.0199,-0.0293 0.0372,-0.0588 0.0554,-0.0887 l 0.39977,-0.63295 c 0.0199,-0.0293 0.0372,-0.0589 0.0554,-0.0887 l 0.38309,-0.64404 c 0.0171,-0.0293 0.0338,-0.0588 0.05,-0.0887 l 0.372,-0.65516 c 0.0171,-0.0313 0.0338,-0.0628 0.05,-0.0944 l 0.34979,-0.66627 c 0.0171,-0.0293 0.0338,-0.0588 0.05,-0.0887 l 0.33868,-0.67736 c 0.0142,-0.0313 0.0298,-0.0628 0.0443,-0.0944 l 0.32202,-0.68293 c 0.0142,-0.0313 0.0256,-0.0628 0.0389,-0.0944 l 0.30536,-0.69402 c 0.0142,-0.0313 0.0298,-0.0628 0.0443,-0.0944 l 0.28314,-0.70514 c 0.0142,-0.0313 0.0256,-0.0628 0.0389,-0.0944 l 0.27205,-0.71068 c 0.0142,-0.0333 0.0256,-0.0665 0.0389,-0.10006 l 0.25528,-0.71622 c 0.0114,-0.0333 0.0227,-0.0665 0.0333,-0.10006 l 0.2331,-0.72734 c 0.0114,-0.0333 0.0227,-0.0665 0.0333,-0.10006 l 0.22201,-0.73288 c 0.009,-0.035 0.0199,-0.0702 0.0284,-0.10546 l 0.19984,-0.73842 c 0.009,-0.035 0.0199,-0.0702 0.0284,-0.10547 l 0.18336,-0.74953 c 0.009,-0.0333 0.0142,-0.0665 0.0227,-0.10007 l 0.16658,-0.7551 c 0.009,-0.035 0.0142,-0.0702 0.0227,-0.10547 l 0.14981,-0.76619 c 0.006,-0.035 0.0114,-0.0702 0.0171,-0.10547 l 0.12763,-0.76619 c 0.006,-0.035 0.0114,-0.0702 0.0171,-0.10546 l 0.11115,-0.77728 c 0.003,-0.035 0.009,-0.0702 0.0114,-0.10547 l 0.0887,-0.78285 c 0.003,-0.035 0.009,-0.0702 0.0114,-0.10546 l 0.0722,-0.78843 c 0.002,-0.0353 0.003,-0.0702 0.006,-0.10546 l 0.05,-0.79394 c 0.002,-0.0352 0.003,-0.0702 0.006,-0.10547 l 0.0333,-0.79951 c 4.3e-4,-0.0352 4.3e-4,-0.0702 0,-0.10546 l 0.0114,-0.80508 -4.22519,-0.0554 4.22519,0.0554 -0.0114,-0.91055 c 4.3e-4,-0.0353 4.3e-4,-0.0702 0,-0.10546 l -0.0333,-0.79951 c -0.001,-0.0352 -0.003,-0.0702 -0.006,-0.10547 l -0.05,-0.79393 c -0.001,-0.0352 -0.003,-0.0702 -0.006,-0.10547 l -0.0722,-0.78842 c -0.003,-0.0352 -0.009,-0.0705 -0.0114,-0.10547 l -0.0887,-0.78285 c -0.003,-0.0353 -0.009,-0.0702 -0.0114,-0.10546 l -0.11115,-0.77728 c -0.006,-0.0352 -0.0114,-0.0705 -0.0171,-0.10547 l -0.12763,-0.77176 c -0.006,-0.0352 -0.0114,-0.0705 -0.0171,-0.10547 l -0.14981,-0.76062 c -0.009,-0.0353 -0.0142,-0.0705 -0.0227,-0.10546 l -0.16658,-0.75511 c -0.009,-0.0352 -0.0142,-0.0705 -0.0227,-0.10546 l -0.18336,-0.744 c -0.009,-0.0352 -0.0199,-0.0705 -0.0284,-0.10546 l -0.19984,-0.74399 c -0.009,-0.0336 -0.0199,-0.0668 -0.0284,-0.10007 l -0.22201,-0.73287 c -0.0114,-0.0335 -0.0227,-0.0668 -0.0333,-0.10007 l -0.2331,-0.72733 c -0.0114,-0.0335 -0.0227,-0.0668 -0.0333,-0.10006 l -0.25528,-0.72177 c -0.0114,-0.0316 -0.0256,-0.0631 -0.0389,-0.0944 l -0.27205,-0.71068 c -0.0114,-0.0335 -0.0256,-0.0668 -0.0389,-0.10006 l -0.28314,-0.69959 c -0.0142,-0.0316 -0.0293,-0.0631 -0.0443,-0.0944 l -0.30536,-0.69402 c -0.0114,-0.0316 -0.0256,-0.0631 -0.0389,-0.0944 l -0.32202,-0.68848 c -0.0142,-0.0299 -0.0293,-0.0594 -0.0443,-0.0887 l -0.33868,-0.6777 c -0.017,-0.0316 -0.033,-0.0631 -0.05,-0.0944 l -0.34979,-0.66073 c -0.0171,-0.0316 -0.033,-0.0631 -0.05,-0.0944 l -0.372,-0.65515 c -0.0171,-0.0299 -0.033,-0.0594 -0.05,-0.0887 l -0.38309,-0.64404 c -0.0171,-0.0299 -0.0367,-0.0594 -0.0554,-0.0887 l -0.39977,-0.6385 c -0.017,-0.0284 -0.0367,-0.0557 -0.0554,-0.0833 l -0.41086,-0.62739 c -0.0171,-0.0284 -0.0367,-0.0557 -0.0554,-0.0833 l -0.43308,-0.61669 c -0.0171,-0.0284 -0.0367,-0.0557 -0.0554,-0.0833 l -0.44417,-0.60518 c -0.0199,-0.0256 -0.0404,-0.052 -0.0611,-0.0776 l -0.4608,-0.5941 c -0.0199,-0.0256 -0.0404,-0.052 -0.0611,-0.0776 l -0.47194,-0.58298 c -0.0199,-0.0256 -0.0404,-0.052 -0.0611,-0.0776 l -0.4886,-0.5719 c -0.0227,-0.0256 -0.0441,-0.0523 -0.0665,-0.0782 l -0.49412,-0.55521 c -0.0227,-0.0256 -0.0478,-0.052 -0.0722,-0.0776 l -0.5108,-0.54409 c -0.0227,-0.0256 -0.0441,-0.0483 -0.0665,-0.0722 l -0.52747,-0.53301 c -0.0227,-0.0256 -0.0477,-0.0483 -0.0722,-0.0722 l -0.53301,-0.52192 c -0.0227,-0.0256 -0.0477,-0.0483 -0.0722,-0.0722 l -0.54967,-0.50523 c -0.0256,-0.0228 -0.0514,-0.0446 -0.0776,-0.0665 l -0.56075,-0.49969 c -0.0256,-0.0228 -0.0515,-0.0446 -0.0776,-0.0665 z m -51.19085,5.41336 -0.23311,0.29982 c -0.0199,0.0256 -0.0409,0.0515 -0.0611,0.0776 l -0.44418,0.60518 c -0.0199,0.0284 -0.0372,0.0554 -0.0554,0.0833 l -0.42751,0.61627 c -0.0199,0.0284 -0.0409,0.0554 -0.0611,0.0833 l -0.41089,0.62739 c -0.0199,0.0284 -0.0372,0.0554 -0.0554,0.0833 l -0.39974,0.6385 c -0.0199,0.0293 -0.0372,0.0588 -0.0554,0.0887 l -0.38311,0.64404 c -0.0171,0.0293 -0.0338,0.0589 -0.05,0.0887 l -0.372,0.65515 c -0.0171,0.0313 -0.0338,0.0628 -0.05,0.0944 l -0.34977,0.66073 c -0.017,0.0313 -0.0338,0.0628 -0.05,0.0944 l -0.33314,0.67736 c -0.017,0.0293 -0.0338,0.0588 -0.05,0.0887 l -0.31648,0.68847 c -0.0142,0.0313 -0.0298,0.0628 -0.0443,0.0944 l -0.30537,0.69402 c -0.0142,0.0313 -0.0256,0.0628 -0.0389,0.0944 l -0.28871,0.69959 c -0.0142,0.0333 -0.0256,0.0665 -0.0389,0.10006 l -0.27205,0.71067 c -0.0142,0.0313 -0.0256,0.0628 -0.0389,0.0944 l -0.25528,0.72176 c -0.0114,0.0333 -0.0227,0.0665 -0.0333,0.10007 l -0.2331,0.72733 c -0.0114,0.0333 -0.0227,0.0665 -0.0333,0.10006 l -0.22201,0.73288 c -0.009,0.0333 -0.0199,0.0665 -0.0284,0.10007 l -0.19984,0.74399 c -0.009,0.035 -0.0199,0.0702 -0.0284,0.10546 l -0.18335,0.74399 c -0.009,0.035 -0.0142,0.0702 -0.0227,0.10547 l -0.16659,0.75511 c -0.009,0.035 -0.0142,0.0702 -0.0227,0.10546 l -0.14441,0.76062 c -0.009,0.035 -0.0142,0.0702 -0.0227,0.10547 l -0.12764,0.77176 c -0.006,0.035 -0.0114,0.0702 -0.0171,0.10547 l -0.11115,0.77728 c -0.003,0.035 -0.009,0.0702 -0.0114,0.10546 l -0.0887,0.78285 c -0.003,0.035 -0.009,0.0702 -0.0114,0.10547 l -0.0722,0.78842 c -0.002,0.0352 -0.003,0.0702 -0.006,0.10546 l -0.05,0.79394 c -0.002,0.0353 -0.003,0.0702 -0.006,0.10547 l -0.0333,0.79951 c -4.3e-4,0.0353 -4.3e-4,0.0702 0,0.10546 l -0.0114,0.80508 c -4.3e-4,0.0353 -4.3e-4,0.0702 0,0.10547 l 0.0114,0.80508 c -4.3e-4,0.0353 -4.3e-4,0.0702 0,0.10546 l 0.0333,0.79951 c 0.001,0.0352 0.003,0.0702 0.006,0.10547 l 0.05,0.79394 c 0.001,0.0352 0.003,0.0702 0.006,0.10546 l 0.0722,0.78842 c 0.003,0.0353 0.009,0.0702 0.0114,0.10547 l 0.0887,0.78285 c 0.003,0.0353 0.009,0.0702 0.0114,0.10546 l 0.11115,0.77728 c 0.006,0.0352 0.0114,0.0705 0.0171,0.10547 l 0.12764,0.76619 c 0.009,0.0353 0.0142,0.0705 0.0227,0.10547 l 0.14441,0.76619 c 0.009,0.0352 0.0142,0.0705 0.0227,0.10547 l 0.16659,0.7551 c 0.009,0.0335 0.0142,0.0668 0.0227,0.10007 l 0.18335,0.74953 c 0.009,0.0353 0.0199,0.0705 0.0284,0.10547 l 0.19984,0.73842 c 0.009,0.0352 0.0199,0.0705 0.0284,0.10546 l 0.22201,0.73288 c 0.0114,0.0335 0.0227,0.0668 0.0333,0.10006 l 0.2331,0.72733 c 0.0114,0.0335 0.0228,0.0668 0.0333,0.10007 l 0.25528,0.71622 c 0.0114,0.0335 0.0256,0.0668 0.0389,0.10006 l 0.27205,0.71068 c 0.0114,0.0316 0.0256,0.0631 0.0389,0.0944 l 0.28871,0.70514 c 0.0114,0.0316 0.0256,0.0631 0.0389,0.0944 l 0.30537,0.69402 c 0.0142,0.0315 0.0293,0.0631 0.0443,0.0944 l 0.11115,0.24419 7.65643,-3.59224 -0.0944,-0.19444 -0.26096,-0.59964 -0.24988,-0.60519 -0.2331,-0.61629 -0.22201,-0.62184 -0.20553,-0.62185 -0.18876,-0.6385 -0.17226,-0.63849 -0.1609,-0.64405 -0.14441,-0.65516 -0.12224,-0.65515 -0.11115,-0.66625 -0.0944,-0.66627 -0.0776,-0.67736 -0.0611,-0.6829 -0.0443,-0.68293 -0.0284,-0.68845 -0.006,-0.69959 0.006,-0.69401 0.0284,-0.68845 0.0443,-0.68847 0.0611,-0.67736 0.0776,-0.67736 0.0944,-0.66628 0.11115,-0.66624 0.12224,-0.66073 0.14441,-0.64959 0.1609,-0.64404 0.17226,-0.64407 0.18876,-0.63293 0.20553,-0.62741 0.22201,-0.61627 0.2331,-0.6163 0.24988,-0.60518 0.26096,-0.59964 0.27773,-0.58853 0.2887,-0.58298 0.30537,-0.57741 0.32205,-0.56632 0.33311,-0.56078 0.34425,-0.54966 0.35533,-0.53855 0.372,-0.53301 0.38308,-0.52189 0.19985,-0.26096 z m 7.56201,38.89284 -6.44048,5.47996 0.18875,0.22202 c 0.0227,0.0256 0.0441,0.0483 0.0665,0.0722 l 0.49412,0.56075 c 0.0227,0.0256 0.0478,0.0523 0.0722,0.0779 l 0.51081,0.5441 c 0.0227,0.0256 0.0441,0.0483 0.0665,0.0722 l 0.52746,0.53301 c 0.0227,0.0256 0.0478,0.0483 0.0722,0.0722 l 0.533,0.52192 c 0.0256,0.0227 0.0515,0.0446 0.0776,0.0665 l 0.54409,0.51078 c 0.0256,0.0227 0.0515,0.0446 0.0776,0.0665 l 0.56078,0.49969 c 0.0256,0.0199 0.0514,0.0409 0.0776,0.0611 l 0.57187,0.48303 c 0.0256,0.0227 0.0514,0.0446 0.0776,0.0665 l 0.58852,0.46637 c 0.0256,0.0199 0.0515,0.0409 0.0776,0.0611 l 0.59409,0.45529 c 0.0284,0.0199 0.0554,0.0409 0.0833,0.0611 l 0.60518,0.44417 c 0.0284,0.0199 0.0554,0.0372 0.0833,0.0554 l 0.62184,0.42751 c 0.0284,0.0199 0.0554,0.0372 0.0833,0.0554 l 0.62739,0.41085 c 0.0293,0.0199 0.0588,0.0372 0.0887,0.0554 l 0.6385,0.39974 c 0.0284,0.0171 0.0554,0.0338 0.0833,0.05 l 0.65516,0.38311 c 0.0284,0.0171 0.0554,0.0335 0.0833,0.05 l 0.6607,0.36642 c 0.0313,0.0171 0.0628,0.0338 0.0944,0.05 l 0.66627,0.34979 c 0.0313,0.0171 0.0628,0.0338 0.0944,0.05 l 0.67736,0.33314 c 0.0313,0.0142 0.0628,0.0298 0.0944,0.0443 l 0.68291,0.32202 c 0.0313,0.0142 0.0628,0.0256 0.0944,0.0389 l 0.69959,0.30536 c 0.0313,0.0142 0.0628,0.0256 0.0944,0.0389 l 0.70511,0.28873 c 0.0333,0.0142 0.0665,0.0256 0.10006,0.0389 l 0.71067,0.26636 c 0.0333,0.0142 0.0665,0.0256 0.10007,0.0389 l 0.72179,0.24988 c 0.0333,0.0114 0.0665,0.0227 0.10006,0.0333 l 0.72733,0.23878 c 0.0333,0.009 0.0665,0.0199 0.10007,0.0284 l 0.73842,0.22202 c 0.0333,0.009 0.0665,0.0199 0.10006,0.0284 l 0.74957,0.19985 c 0.0333,0.009 0.0665,0.0199 0.10006,0.0284 l 0.75508,0.18307 c 0.0333,0.009 0.0665,0.0142 0.10006,0.0227 l 0.76065,0.1609 c 0.035,0.009 0.0702,0.0142 0.10547,0.0227 l 0.76619,0.14981 c 0.035,0.006 0.0702,0.0114 0.10546,0.0171 l 0.77177,0.12764 c 0.035,0.006 0.0702,0.0114 0.10546,0.017 l 0.77728,0.10547 c 0.035,0.006 0.0702,0.0114 0.10547,0.017 l 0.78842,0.0887 c 0.035,0.003 0.0702,0.009 0.10547,0.0114 l 0.78839,0.0665 c 0.035,0.003 0.0702,0.009 0.10546,0.0114 l 0.79951,0.05 c 0.0352,0.002 0.0702,0.003 0.10547,0.006 l 0.79951,0.0284 c 0.037,0.002 0.0742,0.003 0.11115,0.006 l 0.80505,0.0114 c 0.0352,4.2e-4 0.0702,4.2e-4 0.10547,0 l 0.81062,-0.0114 c 0.0353,-0.001 0.0702,-0.003 0.10547,-0.006 l 0.79951,-0.0284 c 0.0353,-0.001 0.0702,-0.003 0.10546,-0.006 l 0.79951,-0.05 c 0.0352,-0.003 0.0702,-0.009 0.10546,-0.0114 l 0.79397,-0.0665 c 0.0352,-0.003 0.0705,-0.009 0.10547,-0.0114 l 0.78285,-0.0887 c 0.0352,-0.006 0.0705,-0.0114 0.10546,-0.017 l 0.77731,-0.10547 c 0.0353,-0.006 0.0705,-0.0114 0.10547,-0.017 l 0.77728,-0.12764 c 0.0335,-0.006 0.0668,-0.0114 0.10006,-0.0171 l 0.76622,-0.14981 c 0.0352,-0.009 0.0705,-0.0142 0.10546,-0.0227 l 0.38309,-0.0776 -1.79335,-8.26715 -0.32756,0.0722 -0.66071,0.12764 -0.67181,0.11115 -0.67182,0.0944 -0.68293,0.0776 -0.6829,0.0611 -0.69402,0.0389 -0.69402,0.0284 -0.69956,0.0114 -0.70513,-0.0114 -0.69402,-0.0284 -0.68847,-0.0389 -0.68847,-0.0611 -0.67736,-0.0776 -0.67736,-0.0944 -0.66625,-0.11115 -0.66627,-0.12764 -0.65516,-0.13872 -0.65516,-0.1609 -0.64404,-0.17227 -0.6385,-0.18875 -0.62738,-0.20553 -0.62742,-0.21661 -0.61626,-0.23311 -0.61076,-0.24987 -0.59961,-0.26096 -0.59964,-0.27773 -0.58298,-0.28871 -0.58298,-0.30536 -0.56633,-0.31648 -0.56629,-0.33313 -0.54967,-0.34423 -0.54412,-0.35533 -0.53855,-0.36646 -0.52746,-0.38308 -0.51081,-0.3942 -0.5108,-0.40531 -0.49412,-0.41643 -0.4886,-0.42751 -0.47192,-0.44417 -0.4664,-0.44972 -0.45526,-0.46083 -0.43863,-0.47192 -0.43306,-0.48306 z"
       id="path3466-5-6-4"
       inkscape:export-filename="/home/vinicius/Desktop/path3466-5-8.png"
       inkscape:export-xdpi="241.64"
       inkscape:export-ydpi="241.64"
       sodipodi:nodetypes="cccccccccccccccccccccccccccccccccccccccccccccccccccccccccccccccccccccccccccccccccccccccccccccccccccccccccccccccccccccccccccccccccccccccccccccccccccccccccccccccccccccccccccccccccccccccccccccccccccccccccccccccccccccccccccccccccccccccccccccccccccccccccccccccccccccccccccccccccccccccccccccccccccccccccccccccccccccccccccccccccccccccccccccccccccccccccccccccccccccccccccccccccccccccccccccccccccccccccccccccccccccccccccccccccccccccccccccccccccccccccccccccccccccccccccccccccccccccccccccccccccccccccccccccccccccccccccccccccccccccccccccccccccccccccccccccccccccccccccccccccccccsccscccccccccccccccccccccccccccccccccccccccccccccccccccccccccccccccccccccccccccccccccccccccccc" />
    <rect
       style="fill:none;fill-opacity:1;stroke:none;stroke-width:1;stroke-linejoin:round;stroke-miterlimit:4;stroke-dasharray:11.8964, 2.97413;stroke-dashoffset:0;stroke-opacity:1;paint-order:stroke fill markers"
       id="rect42355"
       width="105.11601"
       height="105.11601"
       x="0.083493471"
       y="0.083493471"
       inkscape:export-filename="/home/vinicius/Desktop/path3466-5-8.png"
       inkscape:export-xdpi="241.64"
       inkscape:export-ydpi="241.64" />
  </g>
</svg>
